# xmcd
# Track frame offsets:
# 150
# 14396
# 32352
# 60501
# 93242
# 117155
# 148014
# 168780
# 192863
# 216042
# 230870
# 253371
# 270452
# 298513
#
# Disc length: 4182 seconds
# Revision: 0
# Processed by: cddbd v1.5.2PL0 Copyright (c) Steve Scherf et al.
# Submitted via: VisiTrax 2.10.0.248 - For more info visit www.synapsa.com
#
DISCID=c310540e
DTITLE=Various Artist - Rattlesnake Guitar - The Music of Peter Green (1 o
DTITLE=f 2)
DYEAR=1900
DGENRE=Blues Rock
TTITLE0=Kim Simmonds - Savoy Brown - Stop Messin' 'Round
TTITLE1=Larry McCray - Black Magic Woman
TTITLE2=Lonesome Dave Peverett - Rod Price - Love That Burns
TTITLE3=Snowy White - Looking for Somebody
TTITLE4=Jess Roden - Luther Grosvenor - Mike Kellie - Crying Won't Bring You B
TTITLE4=ack
TTITLE5=Rory Gallagher - Leaving Town Blues
TTITLE6=Lonesome Dave Peverett - Rod Price - If You Be My Baby
TTITLE7=Harvey Mandel - Wilbur Bascomb, Jr. - Wilbur Bascomb, Sr. - Ramblin' P
TTITLE7=ony
TTITLE8=Arthur Brown - The Green Manalishi
TTITLE9=Ken Hensley - Hellbound on My Trail
TTITLE10=Jay Aston - Larry Mitchell - I Loved Another Woman
TTITLE11=Mick Abrahams - The Same Way
TTITLE12=Jim McCarty - Top Topham - Drifting
TTITLE13=Clas Yngstrom - The Supernatural
EXTD=
EXTT0=
EXTT1=
EXTT2=
EXTT3=
EXTT4=
EXTT5=
EXTT6=
EXTT7=
EXTT8=
EXTT9=
EXTT10=
EXTT11=
EXTT12=
EXTT13=
PLAYORDER=
